<svg xmlns="http://www.w3.org/2000/svg" viewBox="0 0 647 164.61"><defs><style>.cls-1{fill:#53f6c7;}.cls-2{fill:#fff;}</style></defs><title>Asset 1</title><g id="Layer_2" data-name="Layer 2"><g id="Layer_1-2" data-name="Layer 1"><path class="cls-1" d="M205.74,91.93A14.89,14.89,0,0,0,209.64,102q3.64,3.81,10.16,3.81a17.6,17.6,0,0,0,5.16-.68,12,12,0,0,0,3.77-1.86,10.18,10.18,0,0,0,2.54-2.75,15.85,15.85,0,0,0,1.57-3.34l6.26,1.69a18.55,18.55,0,0,1-6.56,9.52q-4.78,3.68-12.91,3.68a21.29,21.29,0,0,1-8.25-1.57,18.54,18.54,0,0,1-6.48-4.44,20.64,20.64,0,0,1-4.23-6.86,24.43,24.43,0,0,1-1.52-8.8v-2a21.37,21.37,0,0,1,1.57-8.21,19.49,19.49,0,0,1,4.36-6.56,20.42,20.42,0,0,1,6.56-4.32,21.07,21.07,0,0,1,8.17-1.57,19.58,19.58,0,0,1,8.93,1.9,19.9,19.9,0,0,1,6.18,4.7,19.43,19.43,0,0,1,4.7,12.19v5.42ZM219.8,74a15,15,0,0,0-5.21.89,13.14,13.14,0,0,0-7.19,6.26,13.84,13.84,0,0,0-1.48,4.7H233a12.19,12.19,0,0,0-1.31-4.91,12,12,0,0,0-3-3.72,13.73,13.73,0,0,0-4.15-2.37A13.91,13.91,0,0,0,219.8,74Z"/><path class="cls-1" d="M248.28,68.91h15.24v5.59h1a10.86,10.86,0,0,1,4.57-5.12,13.68,13.68,0,0,1,6.77-1.65,13.4,13.4,0,0,1,10.24,4.15Q290,76,290.27,84l-6.94,1q0-5.84-2.79-8.42A9.73,9.73,0,0,0,273.68,74a9.51,9.51,0,0,0-4.53,1A9.14,9.14,0,0,0,266,77.8a12.12,12.12,0,0,0-1.86,4.15,20.9,20.9,0,0,0-.59,5.08V104.8h10.67v6.09H247.27V104.8h9.65V75h-8.63Z"/><path class="cls-1" d="M299.34,104.8h14.73V75H300.86V68.91h19.81V104.8h13.71v6.09h-35Zm12-48.42a5.93,5.93,0,1,1,1.74,4.19A5.71,5.71,0,0,1,311.36,56.38Z"/><path class="cls-1" d="M384.82,96a21.67,21.67,0,0,1-2.33,6.43,18.18,18.18,0,0,1-10.12,8.47,22.7,22.7,0,0,1-7.53,1.18,24.11,24.11,0,0,1-8.34-1.44,20.21,20.21,0,0,1-6.9-4.19,19.87,19.87,0,0,1-4.7-6.73,22.67,22.67,0,0,1-1.73-9.14v-1a23.05,23.05,0,0,1,1.73-9.14,20.16,20.16,0,0,1,4.7-6.86,21,21,0,0,1,6.9-4.32,22.89,22.89,0,0,1,8.34-1.52,22.16,22.16,0,0,1,7.37,1.18,19,19,0,0,1,6,3.34,18.13,18.13,0,0,1,4.23,5.12,20.09,20.09,0,0,1,2.24,6.43l-6.6,1.52a13.77,13.77,0,0,0-1.23-4.27,12,12,0,0,0-2.62-3.64,12.3,12.3,0,0,0-4-2.5,15,15,0,0,0-5.5-.93A14.35,14.35,0,0,0,359,75.13a14.53,14.53,0,0,0-4.7,3.22,14.79,14.79,0,0,0-3.17,5,16.81,16.81,0,0,0-1.14,6.26v1A17,17,0,0,0,351.09,97a13.51,13.51,0,0,0,3.17,4.78,14.25,14.25,0,0,0,4.74,3,15.9,15.9,0,0,0,5.84,1.06,14.08,14.08,0,0,0,5.46-1,13,13,0,0,0,4-2.54,12.19,12.19,0,0,0,2.62-3.6,15.09,15.09,0,0,0,1.31-4.23Z"/><circle class="cls-1" cx="82.3" cy="82.3" r="82.3"/><path class="cls-2" d="M1.7,96V74.93l58-20V66.61l-53.83,18v1.66l53.83,18V116Z"/><path class="cls-2" d="M100.18,19.86l9.71,3.05L69.52,146.39l-9.85-3.05Z"/><path class="cls-2" d="M163.61,73.9V95.06l-56.26,20.49V103.89l53.83-18V84.19l-53.83-18V54.5Z"/><path class="cls-1" d="M430.71,81.17a3,3,0,0,0,2.12,2.92,31.08,31.08,0,0,0,7.7,1.48A20.12,20.12,0,0,1,451,89.42a10.59,10.59,0,0,1,4.06,8.85v.51a12.22,12.22,0,0,1-4.57,10q-4.57,3.73-12.87,3.72a24.46,24.46,0,0,1-8.38-1.27,19.21,19.21,0,0,1-5.76-3.17,14,14,0,0,1-3.51-4.23,16.32,16.32,0,0,1-1.65-4.53l9.82-3.22a9.61,9.61,0,0,0,2.84,4.74q2.16,2,6.65,2,4,0,5.46-1.23a3.48,3.48,0,0,0,1.48-2.67,3.29,3.29,0,0,0-.38-1.57,3.8,3.8,0,0,0-1.4-1.35A9.53,9.53,0,0,0,440.07,95a31.89,31.89,0,0,0-4.36-.68q-7.11-.59-11.3-3.68t-4.19-9.1V81a10.9,10.9,0,0,1,1.35-5.5,13.1,13.1,0,0,1,3.56-4,15.82,15.82,0,0,1,5.08-2.5,20.92,20.92,0,0,1,5.93-.85,21.89,21.89,0,0,1,6.9,1,16.7,16.7,0,0,1,5,2.54,14.74,14.74,0,0,1,3.3,3.47,18.76,18.76,0,0,1,1.95,3.68l-9.65,3.89a7,7,0,0,0-2.62-3.6,8.21,8.21,0,0,0-4.83-1.31,7,7,0,0,0-4.06,1A2.89,2.89,0,0,0,430.71,81.17Z"/><path class="cls-1" d="M462.2,69.32h12.44V52h10.67V69.32h15.15V79.48H485.31V98.61q0,2.54,2.29,2.54h11.34v10.16H481.16a6.28,6.28,0,0,1-4.7-1.86,6.49,6.49,0,0,1-1.82-4.74V79.48H462.2Z"/><path class="cls-1" d="M551,90.82a22.73,22.73,0,0,1-1.78,9.27,19.72,19.72,0,0,1-4.82,6.77,21.14,21.14,0,0,1-7,4.19,24.4,24.4,0,0,1-16.51,0,21.13,21.13,0,0,1-7-4.19,19.71,19.71,0,0,1-4.83-6.77,22.73,22.73,0,0,1-1.78-9.27v-1a22.51,22.51,0,0,1,1.78-9.18A20.2,20.2,0,0,1,514,73.8a20.8,20.8,0,0,1,7-4.23,24.4,24.4,0,0,1,16.51,0,20.81,20.81,0,0,1,7,4.23,20.21,20.21,0,0,1,4.82,6.82A22.51,22.51,0,0,1,551,89.8ZM529.2,102.33a12.18,12.18,0,0,0,4.32-.76,10.26,10.26,0,0,0,6-5.71,11.82,11.82,0,0,0,.89-4.7V89.47a11.83,11.83,0,0,0-.89-4.7,10.26,10.26,0,0,0-6-5.71,12.6,12.6,0,0,0-8.63,0,10.25,10.25,0,0,0-6,5.71,11.83,11.83,0,0,0-.89,4.7v1.69a11.82,11.82,0,0,0,.89,4.7,10.25,10.25,0,0,0,6,5.71A12.17,12.17,0,0,0,529.2,102.33Z"/><path class="cls-1" d="M589,69.32h10.67v42H589v-6.09h-1.52q-2.79,7.28-12,7.28a16.49,16.49,0,0,1-5.84-1,12.64,12.64,0,0,1-4.74-3.13,14.72,14.72,0,0,1-3.17-5.29,22.15,22.15,0,0,1-1.14-7.49V69.32h10.67v24a10.48,10.48,0,0,0,2.12,7q2.12,2.5,6.35,2.5,4.83,0,7.07-3.09T589,91.33Z"/><path class="cls-1" d="M608.74,69.32h12.44V52h10.67V69.32H647V79.48H631.85V98.61q0,2.54,2.29,2.54h11.34v10.16H627.7a6.28,6.28,0,0,1-4.7-1.86,6.49,6.49,0,0,1-1.82-4.74V79.48H608.74Z"/></g></g></svg>