<?xml version="1.0" standalone="no"?>
<!DOCTYPE svg PUBLIC "-//W3C//DTD SVG 20010904//EN"
 "http://www.w3.org/TR/2001/REC-SVG-20010904/DTD/svg10.dtd">
<svg version="1.0" xmlns="http://www.w3.org/2000/svg"
 width="260.000000pt" height="260.000000pt" viewBox="0 0 260.000000 260.000000"
 preserveAspectRatio="xMidYMid meet">
<metadata>
Created by potrace 1.11, written by Peter Selinger 2001-2013
</metadata>
<g transform="translate(0.000000,260.000000) scale(0.100000,-0.100000)"
fill="#000000" stroke="none">
<path d="M1095 2584 c-552 -84 -998 -534 -1079 -1085 -17 -112 -20 -270 -6
-354 5 -37 8 -8 9 108 l1 158 35 15 c50 20 876 304 887 304 5 0 7 -41 6 -92
l-3 -91 -423 -141 c-309 -103 -422 -145 -422 -156 0 -11 113 -53 423 -156
l422 -141 3 -91 c2 -54 -1 -92 -7 -92 -13 0 -881 299 -905 312 -17 9 -18 7
-12 -38 10 -67 68 -239 107 -316 194 -385 556 -652 970 -712 570 -84 1109 197
1368 712 60 118 130 362 105 362 -5 0 -200 -70 -433 -155 -234 -85 -431 -155
-438 -155 -10 0 -13 22 -13 89 l0 89 425 143 c323 108 425 146 423 157 -2 10
-141 62 -423 156 l-420 141 -3 93 c-1 50 1 92 5 91 4 0 206 -69 448 -153 383
-132 440 -150 443 -134 6 31 -28 186 -60 276 -186 528 -681 876 -1239 871 -57
-1 -144 -7 -194 -15z m639 -346 c4 -4 -628 -1936 -636 -1943 -10 -10 -159 37
-155 49 4 11 484 1474 586 1788 l52 156 75 -23 c42 -13 77 -25 78 -27z"/>
<path d="M2594 1300 c0 -69 1 -97 3 -62 2 34 2 90 0 125 -2 34 -3 6 -3 -63z"/>
</g>
</svg>
